<?xml version="1.0" standalone="no"?>
<svg xmlns:xlink="http://www.w3.org/1999/xlink" id="wave" style="transform:rotate(180deg); transition: 0.3s" viewBox="0 0 1440 100" version="1.1" xmlns="http://www.w3.org/2000/svg"><defs><linearGradient id="sw-gradient-0" x1="0" x2="0" y1="1" y2="0"><stop stop-color="rgba(224, 203, 149, 1)" offset="0%"/><stop stop-color="rgba(224, 203, 149, 1)" offset="100%"/></linearGradient></defs><path style="transform:translate(0, 0px); opacity:1" fill="url(#sw-gradient-0)" d="M0,90L17.1,88.3C34.3,87,69,83,103,70C137.1,57,171,33,206,28.3C240,23,274,37,309,46.7C342.9,57,377,63,411,60C445.7,57,480,43,514,46.7C548.6,50,583,70,617,75C651.4,80,686,70,720,68.3C754.3,67,789,73,823,68.3C857.1,63,891,47,926,33.3C960,20,994,10,1029,6.7C1062.9,3,1097,7,1131,15C1165.7,23,1200,37,1234,45C1268.6,53,1303,57,1337,50C1371.4,43,1406,27,1440,30C1474.3,33,1509,57,1543,66.7C1577.1,77,1611,73,1646,60C1680,47,1714,23,1749,25C1782.9,27,1817,53,1851,65C1885.7,77,1920,73,1954,68.3C1988.6,63,2023,57,2057,51.7C2091.4,47,2126,43,2160,46.7C2194.3,50,2229,60,2263,68.3C2297.1,77,2331,83,2366,75C2400,67,2434,43,2451,31.7L2468.6,20L2468.6,100L2451.4,100C2434.3,100,2400,100,2366,100C2331.4,100,2297,100,2263,100C2228.6,100,2194,100,2160,100C2125.7,100,2091,100,2057,100C2022.9,100,1989,100,1954,100C1920,100,1886,100,1851,100C1817.1,100,1783,100,1749,100C1714.3,100,1680,100,1646,100C1611.4,100,1577,100,1543,100C1508.6,100,1474,100,1440,100C1405.7,100,1371,100,1337,100C1302.9,100,1269,100,1234,100C1200,100,1166,100,1131,100C1097.1,100,1063,100,1029,100C994.3,100,960,100,926,100C891.4,100,857,100,823,100C788.6,100,754,100,720,100C685.7,100,651,100,617,100C582.9,100,549,100,514,100C480,100,446,100,411,100C377.1,100,343,100,309,100C274.3,100,240,100,206,100C171.4,100,137,100,103,100C68.6,100,34,100,17,100L0,100Z"/></svg>